<svg version="1.1" id="Layer_1" xmlns="http://www.w3.org/2000/svg" xmlns:xlink="http://www.w3.org/1999/xlink" x="0px" y="0px"
	 width="100%" viewBox="0 0 100 100" enable-background="new 0 0 100 100" xml:space="preserve">
<path fill="#000000" opacity="1.000000" stroke="none" 
	d="
M1.000000,28.000000 
	C1.000000,19.025640 1.000000,10.051283 1.000000,1.038462 
	C34.212685,1.038462 67.425430,1.038462 101.000000,1.038462 
	C101.000000,9.684210 101.000000,18.373442 100.737549,27.856716 
	C98.003227,27.401329 95.531357,26.151901 92.915886,24.574677 
	C90.219193,23.219086 87.666100,22.191290 84.693863,21.090155 
	C83.159660,20.829990 81.957436,20.848459 80.945526,20.418751 
	C77.596291,18.996492 76.503914,20.913465 76.022842,23.636370 
	C73.943169,35.407261 71.915443,47.187332 69.552299,58.824005 
	C61.918934,46.022236 54.602089,33.360527 46.849926,19.945509 
	C40.480854,30.688074 34.711060,40.419846 28.632404,49.996044 
	C21.612524,41.186878 14.901509,32.533283 8.483364,24.257334 
	C5.748890,25.624931 3.374445,26.812466 1.000000,28.000000 
z"/>
<path fill="#000000" opacity="1.000000" stroke="none" 
	d="
M101.000000,30.000000 
	C101.000000,53.623631 101.000000,77.247261 101.000000,100.935448 
	C67.770416,100.935448 34.540680,100.935448 1.000000,100.935448 
	C1.000000,77.980042 1.000000,54.958675 1.253130,31.139111 
	C3.000383,32.217720 4.514728,34.078854 5.985092,35.974098 
	C12.008989,43.738693 18.019476,51.513691 24.005661,59.392216 
	C23.976423,59.499573 24.035753,59.714344 23.725477,59.911621 
	C17.497326,70.485176 11.579452,80.861450 5.434314,91.636208 
	C33.483089,91.636208 60.645092,91.636208 87.986160,91.636208 
	C84.111618,84.458405 80.430344,77.638634 76.796692,70.638809 
	C76.918930,69.996635 76.993530,69.534523 77.448235,68.763351 
	C83.590813,58.162182 89.267769,47.820625 95.172539,37.610817 
	C96.758881,34.867905 99.038582,32.525990 101.000000,30.000000 
z"/>
<path fill="#16D5FA" opacity="1.000000" stroke="none" 
	d="
M24.034899,59.284859 
	C18.019476,51.513691 12.008989,43.738693 5.985092,35.974098 
	C4.514728,34.078854 3.000383,32.217720 1.253130,30.670452 
	C1.000000,30.250000 1.000000,29.500000 1.000000,28.375000 
	C3.374445,26.812466 5.748890,25.624931 8.483364,24.257334 
	C14.901509,32.533283 21.612524,41.186878 28.641006,50.341743 
	C28.937441,51.303143 28.916405,51.763271 28.649643,52.415810 
	C26.947577,54.833771 25.491238,57.059315 24.034899,59.284859 
z"/>
<path fill="#32E953" opacity="1.000000" stroke="none" 
	d="
M101.000000,29.666666 
	C99.038582,32.525990 96.758881,34.867905 95.172539,37.610817 
	C89.267769,47.820625 83.590813,58.162182 77.516663,68.158295 
	C82.489815,53.542355 87.774651,39.222416 93.059486,24.902473 
	C95.531357,26.151901 98.003227,27.401329 100.737549,28.325378 
	C101.000000,28.444445 101.000000,28.888889 101.000000,29.666666 
z"/>
<path fill="#AF87CE" opacity="1.000000" stroke="none" 
	d="
M28.895369,52.223396 
	C28.916405,51.763271 28.937441,51.303143 28.949873,50.497318 
	C34.711060,40.419846 40.480854,30.688074 46.849926,19.945509 
	C54.602089,33.360527 61.918934,46.022236 69.596832,59.191582 
	C70.015396,60.439857 70.072899,61.180500 69.710022,61.914909 
	C66.488174,61.643429 63.686687,61.378185 60.635864,60.970116 
	C59.924389,60.495594 59.462254,60.163898 58.858749,59.515587 
	C54.884247,52.408993 51.051109,45.619011 46.905880,38.276192 
	C43.002159,44.933582 39.508095,50.892349 35.741776,56.961136 
	C35.290356,57.150024 35.111187,57.228901 34.588505,57.238960 
	C32.461784,55.521229 30.678576,53.872314 28.895369,52.223396 
z"/>
<path fill="#FAD01C" opacity="1.000000" stroke="none" 
	d="
M92.915886,24.574677 
	C87.774651,39.222416 82.489815,53.542355 77.136551,68.467354 
	C76.993530,69.534523 76.918930,69.996635 76.587936,70.572235 
	C75.928658,70.515945 75.525780,70.346161 75.015892,69.824875 
	C73.516357,66.978638 72.123817,64.483917 70.824890,61.617382 
	C75.650002,47.884880 80.381508,34.524185 85.113007,21.163494 
	C87.666100,22.191290 90.219193,23.219086 92.915886,24.574677 
z"/>
<path fill="#FF67B9" opacity="1.000000" stroke="none" 
	d="
M84.693863,21.090153 
	C80.381508,34.524185 75.650002,47.884880 70.672302,61.622269 
	C70.426102,61.998966 70.130402,61.921146 70.130402,61.921146 
	C70.072899,61.180500 70.015396,60.439857 69.913361,59.331635 
	C71.915443,47.187332 73.943169,35.407261 76.022842,23.636370 
	C76.503914,20.913465 77.596291,18.996492 80.945526,20.418751 
	C81.957436,20.848459 83.159660,20.829990 84.693863,21.090153 
z"/>
<path fill="#AF87CE" opacity="1.000000" stroke="none" 
	d="
M75.122894,70.176376 
	C75.525780,70.346161 75.928658,70.515945 76.540298,70.752296 
	C80.430344,77.638634 84.111618,84.458405 87.986160,91.636208 
	C60.645092,91.636208 33.483089,91.636208 5.434314,91.636208 
	C11.579452,80.861450 17.497326,70.485176 24.013538,60.104973 
	C26.689667,61.705128 28.767460,63.309216 30.926296,65.188416 
	C31.064646,65.645943 31.121950,65.828362 31.019224,66.328751 
	C27.614946,71.935104 24.370697,77.223480 21.077642,82.591408 
	C38.483101,82.591408 55.163540,82.591408 72.486740,82.591408 
	C69.716995,78.005478 67.299049,74.002022 64.910034,69.958466 
	C64.938980,69.918350 65.022583,69.971237 65.445877,69.935699 
	C68.953743,69.992233 72.038315,70.084305 75.122894,70.176376 
z"/>
<path fill="#7633CA" opacity="1.000000" stroke="none" 
	d="
M30.845251,64.913300 
	C28.767460,63.309216 26.689667,61.705128 24.323814,59.907692 
	C24.035753,59.714344 23.976423,59.499573 24.005661,59.392216 
	C25.491238,57.059315 26.947577,54.833771 28.649643,52.415810 
	C30.678576,53.872314 32.461784,55.521229 34.524178,57.548149 
	C33.483994,60.255199 32.164623,62.584251 30.845251,64.913300 
z"/>
<path fill="#17D5FA" opacity="1.000000" stroke="none" 
	d="
M30.926296,65.188416 
	C32.164623,62.584251 33.483994,60.255199 34.867691,57.616966 
	C35.111187,57.228901 35.290356,57.150024 36.163105,57.027161 
	C44.237831,57.932850 51.618977,58.882526 59.000118,59.832203 
	C59.462254,60.163898 59.924389,60.495594 60.710564,61.309711 
	C62.363934,64.518501 63.693260,67.244873 65.022583,69.971237 
	C65.022583,69.971237 64.938980,69.918350 64.488510,69.959351 
	C53.085110,68.670494 42.132183,67.340637 31.179253,66.010773 
	C31.121950,65.828362 31.064646,65.645943 30.926296,65.188416 
z"/>
<path fill="#000000" opacity="1.000000" stroke="none" 
	d="
M58.858749,59.515587 
	C51.618977,58.882526 44.237831,57.932850 36.435356,56.917145 
	C39.508095,50.892349 43.002159,44.933582 46.905880,38.276192 
	C51.051109,45.619011 54.884247,52.408993 58.858749,59.515587 
z"/>
<path fill="#7732C9" opacity="1.000000" stroke="none" 
	d="
M65.445877,69.935699 
	C63.693260,67.244873 62.363934,64.518501 60.959904,61.452538 
	C63.686687,61.378185 66.488174,61.643429 69.710030,61.914909 
	C70.130402,61.921146 70.426102,61.998966 70.578690,61.994080 
	C72.123817,64.483917 73.516357,66.978638 75.015892,69.824875 
	C72.038315,70.084305 68.953743,69.992233 65.445877,69.935699 
z"/>
<path fill="#000000" opacity="1.000000" stroke="none" 
	d="
M31.019224,66.328751 
	C42.132183,67.340637 53.085110,68.670494 64.459564,69.999466 
	C67.299049,74.002022 69.716995,78.005478 72.486740,82.591408 
	C55.163540,82.591408 38.483101,82.591408 21.077642,82.591408 
	C24.370697,77.223480 27.614946,71.935104 31.019224,66.328751 
z"/>
</svg>